# xmcd
#
# Track frame offsets:
#	150
#	11498
#	24702
#	36879
#	51340
#	67016
#	81078
#	93104
#	107585
#	119975
#
# Disc length: 1756 seconds
# Revision: 0
# Processed by: cddbd v1.5.2PL0 Copyright (c) Steve Scherf et al.
# Submitted via: dBpowerAMP V12.0
#
DISCID=8306da0a
DTITLE=Mel Tillis - Southern Rain
DYEAR=1980
DGENRE=Country
TTITLE0=Southern Rains
TTITLE1=One Night Fever
TTITLE2=Time Has Treated You Well
TTITLE3=A Million Old Goodbyes
TTITLE4=Shame On You, Shame On Me
TTITLE5=Pyramind Of Cans
TTITLE6=Forgive Mr. For Giving You The Blues
TTITLE7=Here's Lookin' At You
TTITLE8=Louisiana Lonely
TTITLE9=Sweet Desire
EXTD=
EXTT0=
EXTT1=
EXTT2=
EXTT3=
EXTT4=
EXTT5=
EXTT6=
EXTT7=
EXTT8=
EXTT9=
PLAYORDER=
